<svg xmlns="http://www.w3.org/2000/svg" width="1600" height="480" viewBox="0 0 1600 480">
  <defs>
    <linearGradient id="bg" x1="0" y1="0" x2="1" y2="1">
      <stop offset="0" stop-color="#0b3d2e"/>
      <stop offset="1" stop-color="#1a7f3c"/>
    </linearGradient>
    <radialGradient id="glow" cx="25%" cy="35%" r="70%">
      <stop offset="0" stop-color="#FF9933" stop-opacity="0.35"/>
      <stop offset="1" stop-color="#FF9933" stop-opacity="0"/>
    </radialGradient>
  </defs>
  <rect width="1600" height="480" fill="url(#bg)"/>
  <rect width="1600" height="480" fill="url(#glow)"/>
  <g fill="#fff" fill-opacity="0.10">
    <circle cx="1320" cy="140" r="120"/>
    <circle cx="1440" cy="220" r="80"/>
  </g>
  <g transform="translate(110,120)">
    <text x="0" y="0" font-family="Poppins, Arial" font-size="44" font-weight="700" fill="#fff">Awards & Recognition</text>
    <text x="0" y="48" font-family="Poppins, Arial" font-size="22" fill="#fff" fill-opacity="0.85">Demo banner (replace with real award images)</text>
    <g transform="translate(0,90)" fill="#fff" fill-opacity="0.10">
      <rect x="0" y="0" width="240" height="150" rx="18"/>
      <rect x="260" y="0" width="240" height="150" rx="18"/>
      <rect x="520" y="0" width="240" height="150" rx="18"/>
    </g>
    <g transform="translate(30,120)">
      <path d="M60 0 L90 50 L150 60 L105 100 L115 160 L60 130 L5 160 L15 100 L-30 60 L30 50 Z" fill="#FF9933" fill-opacity="0.9"/>
    </g>
  </g>
</svg>

